<?xml version="1.0" encoding="UTF-8"?>
<svg xmlns="http://www.w3.org/2000/svg" width="900" height="760" viewBox="0 0 900 760" role="img">
<title>israelondemand.dev architecture on AWS</title>
<desc>Deploy path: VS Code to GitHub to AWS Amplify, which builds, hosts, serves over a global CDN with managed HTTPS. Serve path: visitor to Route 53 to Amplify. Visitor counter path: browser calls a Lambda Function URL, Lambda increments two counters in a DynamoDB table and writes logs to CloudWatch. Alerting: a CloudWatch alarm on Lambda errors and an AWS Budgets spend threshold both publish to an SNS topic which emails an alert. IAM governs access throughout.</desc>
<style>text{font-family:system-ui,-apple-system,"Segoe UI",Roboto,Helvetica,Arial,sans-serif}</style>
<defs>
<marker id="g" viewBox="0 0 10 10" refX="8" refY="5" markerWidth="6.5" markerHeight="6.5" orient="auto-start-reverse"><path d="M2 1L8 5L2 9" fill="none" stroke="#6B7A88" stroke-width="1.6" stroke-linecap="round" stroke-linejoin="round"/></marker>
<marker id="o" viewBox="0 0 10 10" refX="8" refY="5" markerWidth="6.5" markerHeight="6.5" orient="auto-start-reverse"><path d="M2 1L8 5L2 9" fill="none" stroke="#ED7100" stroke-width="1.6" stroke-linecap="round" stroke-linejoin="round"/></marker>
<marker id="r" viewBox="0 0 10 10" refX="8" refY="5" markerWidth="6.5" markerHeight="6.5" orient="auto-start-reverse"><path d="M2 1L8 5L2 9" fill="none" stroke="#DD344C" stroke-width="1.6" stroke-linecap="round" stroke-linejoin="round"/></marker>
</defs>

<rect x="0" y="0" width="900" height="760" fill="#ffffff"/>
<text x="36" y="34" fill="#17212A" font-size="19" font-weight="600">israelondemand.dev &#8212; architecture</text>
<text x="36" y="55" fill="#5A6B7B" font-size="12.5">Static site on Amplify &#183; serverless visitor counter &#183; cost guardrail</text>

<!-- ============ DEPLOY ============ -->
<text x="36" y="92" fill="#8A96A1" font-size="10.5" font-family="monospace" letter-spacing="1">DEPLOY</text>
<rect x="36" y="100" width="136" height="58" rx="9" fill="#fff" stroke="#7D8998" stroke-width="1.5"/>
<text x="104" y="124" fill="#17212A" font-size="13" font-weight="600" text-anchor="middle">VS Code</text>
<text x="104" y="142" fill="#5A6B7B" font-size="10.5" text-anchor="middle">edit + preview</text>
<line x1="172" y1="129" x2="204" y2="129" stroke="#6B7A88" stroke-width="1.5" marker-end="url(#g)"/>
<text x="188" y="121" fill="#5A6B7B" font-size="9.5" text-anchor="middle" font-family="monospace">push</text>

<rect x="206" y="100" width="150" height="58" rx="9" fill="#24292F"/>
<text x="281" y="124" fill="#fff" font-size="13" font-weight="600" text-anchor="middle">GitHub</text>
<text x="281" y="142" fill="#fff" font-size="10" text-anchor="middle" opacity="0.82">ISRL01/israelondemand</text>
<line x1="356" y1="129" x2="410" y2="129" stroke="#6B7A88" stroke-width="1.5" marker-end="url(#g)"/>
<text x="383" y="121" fill="#5A6B7B" font-size="9.5" text-anchor="middle" font-family="monospace">on push</text>

<!-- ============ AWS CLOUD ============ -->
<rect x="412" y="76" width="456" height="530" rx="14" fill="none" stroke="#232F3E" stroke-width="1.5"/>
<text x="428" y="98" fill="#232F3E" font-size="12.5" font-weight="600">AWS Cloud</text>

<!-- Amplify -->
<rect x="428" y="108" width="212" height="196" rx="12" fill="none" stroke="#ED7100" stroke-width="1.6"/>
<text x="442" y="130" fill="#C2410C" font-size="13.5" font-weight="600">AWS Amplify</text>
<rect x="442" y="140" width="184" height="34" rx="7" fill="#FDEEE4" stroke="#F0B892"/>
<text x="452" y="161" fill="#B4470C" font-size="11.5" font-weight="600">CI/CD build &amp; deploy</text>
<rect x="442" y="180" width="184" height="34" rx="7" fill="#FDEEE4" stroke="#F0B892"/>
<text x="452" y="201" fill="#B4470C" font-size="11.5" font-weight="600">Hosting (static files)</text>
<rect x="442" y="220" width="184" height="34" rx="7" fill="#FDEEE4" stroke="#F0B892"/>
<text x="452" y="241" fill="#B4470C" font-size="11.5" font-weight="600">Global CDN (CloudFront)</text>
<rect x="442" y="260" width="184" height="34" rx="7" fill="#FDEEE4" stroke="#F0B892"/>
<text x="452" y="281" fill="#B4470C" font-size="11.5" font-weight="600">Managed HTTPS (ACM)</text>

<!-- Route 53 -->
<rect x="664" y="140" width="188" height="54" rx="9" fill="#8C4FFF"/>
<text x="758" y="163" fill="#fff" font-size="12.5" font-weight="600" text-anchor="middle">Route 53</text>
<text x="758" y="181" fill="#fff" font-size="10" text-anchor="middle" opacity="0.85">israelondemand.dev</text>
<line x1="664" y1="167" x2="644" y2="167" stroke="#6B7A88" stroke-width="1.5" marker-end="url(#g)"/>

<!-- Counter backend -->
<rect x="428" y="330" width="424" height="140" rx="12" fill="none" stroke="#7D8998" stroke-width="1.4" stroke-dasharray="5 4"/>
<text x="442" y="352" fill="#5A6B7B" font-size="12" font-weight="600">Visitor counter (serverless)</text>

<rect x="442" y="364" width="176" height="52" rx="8" fill="#ED7100"/>
<text x="530" y="384" fill="#fff" font-size="12.5" font-weight="600" text-anchor="middle">Lambda</text>
<text x="530" y="402" fill="#fff" font-size="10" text-anchor="middle" opacity="0.88">Function URL &#183; CORS</text>

<line x1="618" y1="390" x2="656" y2="390" stroke="#6B7A88" stroke-width="1.5" marker-end="url(#g)"/>
<text x="637" y="382" fill="#5A6B7B" font-size="9" text-anchor="middle" font-family="monospace">ADD</text>

<rect x="658" y="364" width="180" height="52" rx="8" fill="#01A88D"/>
<text x="748" y="382" fill="#fff" font-size="12.5" font-weight="600" text-anchor="middle">DynamoDB</text>
<text x="748" y="399" fill="#fff" font-size="9.5" text-anchor="middle" opacity="0.88">site-visits &#183; total + per-day</text>

<rect x="442" y="424" width="396" height="32" rx="7" fill="#E7157B"/>
<text x="640" y="444" fill="#fff" font-size="11.5" font-weight="600" text-anchor="middle">CloudWatch Logs &#183; Lambda metrics</text>
<line x1="530" y1="416" x2="530" y2="422" stroke="#6B7A88" stroke-width="1.4" marker-end="url(#g)"/>

<!-- Monitoring & alerting -->
<rect x="428" y="486" width="424" height="112" rx="12" fill="none" stroke="#DD344C" stroke-width="1.4"/>
<text x="442" y="505" fill="#B3243A" font-size="11.5" font-weight="600">Monitoring &amp; alerting</text>
<text x="442" y="527" fill="#5A6B7B" font-size="9" font-family="monospace">errors &#8594; alarm</text>
<text x="442" y="543" fill="#5A6B7B" font-size="9" font-family="monospace">spend &#8594; budgets</text>
<text x="442" y="559" fill="#5A6B7B" font-size="9" font-family="monospace">both &#8594; SNS email</text>

<!-- Lambda error metric feeds the alarm -->
<line x1="636" y1="458" x2="636" y2="508" stroke="#6B7A88" stroke-width="1.4" marker-end="url(#g)"/>
<text x="662" y="474" fill="#5A6B7B" font-size="8.5" text-anchor="middle" font-family="monospace">Errors</text>

<rect x="560" y="510" width="152" height="36" rx="7" fill="#E7157B"/>
<text x="636" y="524" fill="#fff" font-size="10.5" font-weight="600" text-anchor="middle">CloudWatch alarm</text>
<text x="636" y="537" fill="#fff" font-size="8.5" text-anchor="middle" opacity="0.88">Lambda Errors &gt; 0</text>

<rect x="560" y="552" width="152" height="36" rx="7" fill="#DD344C"/>
<text x="636" y="566" fill="#fff" font-size="10.5" font-weight="600" text-anchor="middle">AWS Budgets</text>
<text x="636" y="579" fill="#fff" font-size="8.5" text-anchor="middle" opacity="0.88">monthly spend threshold</text>

<line x1="712" y1="528" x2="723" y2="543" stroke="#DD344C" stroke-width="1.5" marker-end="url(#r)"/>
<line x1="712" y1="570" x2="723" y2="557" stroke="#DD344C" stroke-width="1.5" marker-end="url(#r)"/>

<rect x="726" y="528" width="110" height="44" rx="7" fill="#8C4FFF"/>
<text x="781" y="546" fill="#fff" font-size="11" font-weight="600" text-anchor="middle">SNS topic</text>
<text x="781" y="560" fill="#fff" font-size="9" text-anchor="middle" opacity="0.88">email alert</text>

<!-- ============ SERVE ============ -->
<text x="36" y="316" fill="#8A96A1" font-size="10.5" font-family="monospace" letter-spacing="1">SERVE</text>
<rect x="36" y="324" width="150" height="66" rx="9" fill="#fff" stroke="#7D8998" stroke-width="1.5"/>
<text x="111" y="350" fill="#17212A" font-size="13" font-weight="600" text-anchor="middle">Visitor</text>
<text x="111" y="368" fill="#5A6B7B" font-size="10.5" text-anchor="middle">browser</text>

<path d="M 186 342 L 300 342 L 300 167 L 660 167" fill="none" stroke="#6B7A88" stroke-width="1.5" marker-end="url(#g)"/>
<text x="243" y="334" fill="#5A6B7B" font-size="9.5" text-anchor="middle" font-family="monospace">DNS lookup</text>

<path d="M 428 232 L 340 232 L 340 372 L 186 372" fill="none" stroke="#ED7100" stroke-width="1.8" stroke-dasharray="6 4" marker-end="url(#o)"/>
<text x="340" y="224" fill="#B4470C" font-size="9.5" text-anchor="middle" font-family="monospace">HTTPS from edge</text>

<path d="M 186 358 L 400 358 L 400 390 L 438 390" fill="none" stroke="#6B7A88" stroke-width="1.5" marker-end="url(#g)"/>
<text x="330" y="404" fill="#5A6B7B" font-size="9.5" text-anchor="middle" font-family="monospace">POST count</text>

<!-- IAM band -->
<rect x="36" y="628" width="832" height="46" rx="10" fill="none" stroke="#DD344C" stroke-width="1.5"/>
<text x="452" y="647" fill="#B3243A" font-size="12" font-weight="600" text-anchor="middle">IAM &#8212; identity &amp; access management</text>
<text x="452" y="664" fill="#B3243A" font-size="10" text-anchor="middle">Lambda execution role: dynamodb:UpdateItem on one table, plus CloudWatch Logs. Least privilege.</text>

<text x="36" y="706" fill="#8A96A1" font-size="10">Solid grey = request path &#183; dashed orange = response &#183; red = alarms &amp; alerting</text>
<text x="36" y="722" fill="#8A96A1" font-size="10">No servers, no VPC &#8212; every component is managed or serverless.</text>
</svg>
